<mxfile host="app.diagrams.net" modified="2023-05-24T17:41:20.421Z" agent="Mozilla/5.0 (Windows NT 10.0; Win64; x64) AppleWebKit/537.36 (KHTML, like Gecko) Chrome/113.0.0.0 Safari/537.36" etag="2wEnx2KawHAECzaona3v" version="21.3.3" type="device">
  <diagram id="R2lEEEUBdFMjLlhIrx00" name="Page-1">
    <mxGraphModel dx="1972" dy="1778" grid="1" gridSize="10" guides="1" tooltips="1" connect="1" arrows="1" fold="1" page="1" pageScale="1" pageWidth="850" pageHeight="1100" math="0" shadow="0" extFonts="Permanent Marker^https://fonts.googleapis.com/css?family=Permanent+Marker">
      <root>
        <mxCell id="0" />
        <mxCell id="1" parent="0" />
        <mxCell id="KxF6lLL-VxBKIHNj_TkW-37" style="edgeStyle=orthogonalEdgeStyle;rounded=0;orthogonalLoop=1;jettySize=auto;html=1;exitX=0.25;exitY=0;exitDx=0;exitDy=0;" edge="1" parent="1" source="KxF6lLL-VxBKIHNj_TkW-2" target="KxF6lLL-VxBKIHNj_TkW-1">
          <mxGeometry relative="1" as="geometry" />
        </mxCell>
        <mxCell id="KxF6lLL-VxBKIHNj_TkW-1" value="User" style="swimlane;childLayout=stackLayout;horizontal=1;startSize=50;horizontalStack=0;rounded=1;fontSize=14;fontStyle=0;strokeWidth=2;resizeParent=0;resizeLast=1;shadow=0;dashed=0;align=center;arcSize=4;whiteSpace=wrap;html=1;fillColor=#dae8fc;strokeColor=#6c8ebf;" vertex="1" parent="1">
          <mxGeometry y="60" width="160" height="120" as="geometry" />
        </mxCell>
        <mxCell id="KxF6lLL-VxBKIHNj_TkW-2" value="&lt;p style=&quot;line-height: 120%;&quot;&gt;+user_id: &lt;font color=&quot;#999999&quot;&gt;objectId&lt;/font&gt;&lt;br&gt;- &lt;font color=&quot;#d79b00&quot;&gt;collection&lt;/font&gt;: event&lt;/p&gt;" style="align=left;strokeColor=none;fillColor=none;spacingLeft=4;fontSize=12;verticalAlign=top;resizable=0;rotatable=0;part=1;html=1;" vertex="1" parent="KxF6lLL-VxBKIHNj_TkW-1">
          <mxGeometry y="50" width="160" height="70" as="geometry" />
        </mxCell>
        <mxCell id="KxF6lLL-VxBKIHNj_TkW-3" value="Event" style="swimlane;childLayout=stackLayout;horizontal=1;startSize=50;horizontalStack=0;rounded=1;fontSize=14;fontStyle=0;strokeWidth=2;resizeParent=0;resizeLast=1;shadow=0;dashed=0;align=center;arcSize=4;whiteSpace=wrap;html=1;fillColor=#dae8fc;strokeColor=#6c8ebf;" vertex="1" parent="1">
          <mxGeometry x="220" y="210" width="160" height="120" as="geometry" />
        </mxCell>
        <mxCell id="KxF6lLL-VxBKIHNj_TkW-4" value="+event_ID: &lt;font color=&quot;#999999&quot;&gt;objectId&lt;/font&gt;&lt;br&gt;- &lt;font color=&quot;#d79b00&quot;&gt;collection&lt;/font&gt;: template&lt;br&gt;-&amp;nbsp;&lt;font color=&quot;#d79b00&quot;&gt;collection&lt;/font&gt;: attendee" style="align=left;strokeColor=none;fillColor=none;spacingLeft=4;fontSize=12;verticalAlign=top;resizable=0;rotatable=0;part=1;html=1;" vertex="1" parent="KxF6lLL-VxBKIHNj_TkW-3">
          <mxGeometry y="50" width="160" height="70" as="geometry" />
        </mxCell>
        <mxCell id="KxF6lLL-VxBKIHNj_TkW-7" value="" style="edgeStyle=entityRelationEdgeStyle;endArrow=ERzeroToMany;startArrow=ERone;endFill=1;startFill=0;entryX=0;entryY=0;entryDx=0;entryDy=0;exitX=1;exitY=0.25;exitDx=0;exitDy=0;" edge="1" parent="1" source="KxF6lLL-VxBKIHNj_TkW-2" target="KxF6lLL-VxBKIHNj_TkW-4">
          <mxGeometry width="100" height="100" relative="1" as="geometry">
            <mxPoint x="160" y="280" as="sourcePoint" />
            <mxPoint x="400" y="290" as="targetPoint" />
          </mxGeometry>
        </mxCell>
        <mxCell id="KxF6lLL-VxBKIHNj_TkW-14" value="" style="edgeStyle=entityRelationEdgeStyle;fontSize=12;html=1;endArrow=ERmandOne;startArrow=ERmandOne;rounded=0;exitX=1;exitY=0.5;exitDx=0;exitDy=0;entryX=-0.011;entryY=0.118;entryDx=0;entryDy=0;entryPerimeter=0;" edge="1" parent="1" source="KxF6lLL-VxBKIHNj_TkW-4" target="KxF6lLL-VxBKIHNj_TkW-17">
          <mxGeometry width="100" height="100" relative="1" as="geometry">
            <mxPoint x="400" y="250" as="sourcePoint" />
            <mxPoint x="570" y="80" as="targetPoint" />
          </mxGeometry>
        </mxCell>
        <mxCell id="KxF6lLL-VxBKIHNj_TkW-16" value="Template" style="swimlane;childLayout=stackLayout;horizontal=1;startSize=50;horizontalStack=0;rounded=1;fontSize=14;fontStyle=0;strokeWidth=2;resizeParent=0;resizeLast=1;shadow=0;dashed=0;align=center;arcSize=4;whiteSpace=wrap;html=1;fillColor=#dae8fc;strokeColor=#6c8ebf;" vertex="1" parent="1">
          <mxGeometry x="450" y="310" width="200" height="160" as="geometry" />
        </mxCell>
        <mxCell id="KxF6lLL-VxBKIHNj_TkW-17" value="+title: &lt;font color=&quot;#999999&quot;&gt;string&lt;/font&gt;&lt;br&gt;+description: &lt;font color=&quot;#999999&quot;&gt;string&lt;/font&gt;&lt;br&gt;+date: &lt;font color=&quot;#999999&quot;&gt;date&lt;/font&gt;&lt;br&gt;+location: &lt;font color=&quot;#999999&quot;&gt;string&lt;/font&gt;&lt;br&gt;+event_information: additionalText" style="align=left;strokeColor=none;fillColor=none;spacingLeft=4;fontSize=12;verticalAlign=top;resizable=0;rotatable=0;part=1;html=1;" vertex="1" parent="KxF6lLL-VxBKIHNj_TkW-16">
          <mxGeometry y="50" width="200" height="110" as="geometry" />
        </mxCell>
        <mxCell id="KxF6lLL-VxBKIHNj_TkW-19" value="Attendee" style="swimlane;childLayout=stackLayout;horizontal=1;startSize=50;horizontalStack=0;rounded=1;fontSize=14;fontStyle=0;strokeWidth=2;resizeParent=0;resizeLast=1;shadow=0;dashed=0;align=center;arcSize=4;whiteSpace=wrap;html=1;fillColor=#dae8fc;strokeColor=#6c8ebf;" vertex="1" parent="1">
          <mxGeometry x="450" y="510" width="220" height="120" as="geometry" />
        </mxCell>
        <mxCell id="KxF6lLL-VxBKIHNj_TkW-20" value="+name: &lt;font color=&quot;#999999&quot;&gt;string&lt;/font&gt;&lt;br&gt;+age: &lt;font color=&quot;#999999&quot;&gt;int&lt;/font&gt;&lt;br&gt;+gender: &lt;font color=&quot;#999999&quot;&gt;string&lt;/font&gt;&lt;br&gt;+attendee_information: additionalText" style="align=left;strokeColor=none;fillColor=none;spacingLeft=4;fontSize=12;verticalAlign=top;resizable=0;rotatable=0;part=1;html=1;" vertex="1" parent="KxF6lLL-VxBKIHNj_TkW-19">
          <mxGeometry y="50" width="220" height="70" as="geometry" />
        </mxCell>
        <mxCell id="KxF6lLL-VxBKIHNj_TkW-22" value="" style="edgeStyle=entityRelationEdgeStyle;fontSize=12;html=1;endArrow=ERoneToMany;rounded=0;entryX=0;entryY=0;entryDx=0;entryDy=0;exitX=1;exitY=0.5;exitDx=0;exitDy=0;" edge="1" parent="1" source="KxF6lLL-VxBKIHNj_TkW-4" target="KxF6lLL-VxBKIHNj_TkW-20">
          <mxGeometry width="100" height="100" relative="1" as="geometry">
            <mxPoint x="440" y="120" as="sourcePoint" />
            <mxPoint x="540" y="20" as="targetPoint" />
          </mxGeometry>
        </mxCell>
        <mxCell id="KxF6lLL-VxBKIHNj_TkW-28" value="Users (Collection)" style="swimlane;childLayout=stackLayout;horizontal=1;startSize=50;horizontalStack=0;rounded=1;fontSize=14;fontStyle=0;strokeWidth=2;resizeParent=0;resizeLast=1;shadow=0;dashed=0;align=center;arcSize=4;whiteSpace=wrap;html=1;fillColor=#ffe6cc;strokeColor=#d79b00;" vertex="1" parent="1">
          <mxGeometry x="-230" y="-80" width="160" height="120" as="geometry" />
        </mxCell>
        <mxCell id="KxF6lLL-VxBKIHNj_TkW-29" value="- &lt;font color=&quot;#6c8ebf&quot;&gt;document&lt;/font&gt;: user_1&lt;br&gt;- &lt;font color=&quot;#6c8ebf&quot;&gt;document&lt;/font&gt;: user_2" style="align=left;strokeColor=none;fillColor=none;spacingLeft=4;fontSize=12;verticalAlign=top;resizable=0;rotatable=0;part=1;html=1;" vertex="1" parent="KxF6lLL-VxBKIHNj_TkW-28">
          <mxGeometry y="50" width="160" height="70" as="geometry" />
        </mxCell>
        <mxCell id="KxF6lLL-VxBKIHNj_TkW-30" value="" style="edgeStyle=entityRelationEdgeStyle;fontSize=12;html=1;endArrow=ERoneToMany;rounded=0;exitX=1;exitY=0.25;exitDx=0;exitDy=0;entryX=-0.025;entryY=0.143;entryDx=0;entryDy=0;entryPerimeter=0;" edge="1" parent="1" source="KxF6lLL-VxBKIHNj_TkW-29" target="KxF6lLL-VxBKIHNj_TkW-2">
          <mxGeometry width="100" height="100" relative="1" as="geometry">
            <mxPoint x="200" y="90" as="sourcePoint" />
            <mxPoint x="-20" y="180" as="targetPoint" />
          </mxGeometry>
        </mxCell>
        <mxCell id="KxF6lLL-VxBKIHNj_TkW-41" value="additionalTextÂ " style="swimlane;fontStyle=0;childLayout=stackLayout;horizontal=1;startSize=26;horizontalStack=0;resizeParent=1;resizeParentMax=0;resizeLast=0;collapsible=1;marginBottom=0;align=center;fontSize=14;" vertex="1" parent="1">
          <mxGeometry x="710" y="450" width="160" height="100" as="geometry" />
        </mxCell>
        <mxCell id="KxF6lLL-VxBKIHNj_TkW-42" value="&lt;span style=&quot;background-color: initial;&quot;&gt;text: string&lt;/span&gt;&lt;br&gt;&lt;div&gt;size: string&lt;/div&gt;&lt;div&gt;colour : string&lt;/div&gt;&lt;div&gt;styling: string&lt;/div&gt;" style="text;strokeColor=none;fillColor=none;spacingLeft=4;spacingRight=4;overflow=hidden;rotatable=0;points=[[0,0.5],[1,0.5]];portConstraint=eastwest;fontSize=12;whiteSpace=wrap;html=1;" vertex="1" parent="KxF6lLL-VxBKIHNj_TkW-41">
          <mxGeometry y="26" width="160" height="74" as="geometry" />
        </mxCell>
      </root>
    </mxGraphModel>
  </diagram>
</mxfile>
